#!OML:ASF I:\Actors\actors\Patient Classification 2\Patient 1\Session 1\actor1.ASF
:FULLY-SPECIFIED
:DEGREES
171
root -1.47655 17.8892 6.09247 -4.33432 -17.4014 -6.0968
lowerback 3.07869 -3.75723 4.73825
upperback -3.74068 -4.66185 2.00804
thorax -5.83037 -2.46236 -0.167157
lowerneck -11.8484 1.62661 5.33519
upperneck 33.5469 1.02429 -1.07656
head 13.2843 0.87354 -1.23616
rclavicle 3.38431e-014 1.59028e-014
rhumerus 39.0696 -34.4826 -43.5386
rradius 144.463
rwrist 21.7276
rhand -58.5154 -29.8032
rfingers 7.12502
rthumb -30.7374 -57.2544
lclavicle 3.38431e-014 1.59028e-014
lhumerus -12.9276 -5.78722 87.3139
lradius 59.2958
lwrist 32.0981
lhand -14.1749 -13.7261
lfingers 7.12502
lthumb 11.9605 15.9122
rfemur 20.461 5.97794 23.9881
rtibia -12.2548
rfoot -6.7767 -5.86743
rtoes 9.00831
lfemur 29.3856 -2.59227 -10.763
ltibia -20.14
lfoot -7.34358 23.5238
ltoes -7.54104
172
root -1.4414 17.8876 6.11214 -4.33967 -17.7117 -6.21383
lowerback 3.25031 -3.73315 4.55028
upperback -3.83392 -4.62211 2.11119
thorax -6.00053 -2.43523 0.0565102
lowerneck -12.0114 1.56173 5.27797
upperneck 33.6235 0.915213 -1.03652
head 13.3479 0.823331 -1.22698
rclavicle 1.69961e-014 -8.74653e-015
rhumerus 39.3664 -34.8118 -43.6588
rradius 144.041
rwrist 21.3621
rhand -58.5942 -29.7497
rfingers 7.12502
rthumb -30.8125 -57.1868
lclavicle 1.69961e-014 -8.74653e-015
lhumerus -12.7356 -5.7464 87.4686
lradius 59.5376
lwrist 31.8641
lhand -13.8943 -13.432
lfingers 7.12502
lthumb 12.231 16.1904
rfemur 20.3894 5.85821 23.916
rtibia -12.0749
rfoot -6.5636 -5.61181
rtoes 8.46494
lfemur 29.5739 -2.81793 -10.9352
ltibia -20.1546
lfoot -7.64941 24.0015
ltoes -6.79103
173
root -1.40735 17.8875 6.13301 -4.28276 -18.036 -6.35539
lowerback 3.37189 -3.67726 4.36482
upperback -3.91908 -4.54298 2.22969
thorax -6.1317 -2.38758 0.286914
lowerneck -12.1851 1.47339 5.23409
upperneck 33.6197 0.764786 -0.981806
head 13.3776 0.75831 -1.21975
rclavicle -7.37988e-014 -9.74045e-015
rhumerus 39.6284 -35.1861 -43.7918
rradius 143.526
rwrist 20.9258
rhand -58.5297 -30.108
rfingers 7.12502
rthumb -30.751 -57.5566
lclavicle -7.37988e-014 -9.74045e-015
lhumerus -12.4371 -5.83744 87.6394
lradius 59.7045
lwrist 31.5506
lhand -13.7389 -13.2207
lfingers 7.12502
lthumb 12.3808 16.3927
rfemur 20.2413 5.69756 23.8473
rtibia -11.8739
rfoot -6.33866 -5.31902
rtoes 8.49562
lfemur 29.7095 -2.94809 -11.0528
ltibia -20.1675
lfoot -7.9596 24.3857
ltoes -5.97388
174
root -1.37507 17.8909 6.15339 -4.15996 -18.334 -6.46064
lowerback 3.42634 -3.61575 4.11293
upperback -4.02322 -4.46463 2.34443
thorax -6.24019 -2.33724 0.546058
lowerneck -12.3158 1.35647 5.1405
upperneck 33.5449 0.590912 -0.928852
head 13.3656 0.675683 -1.20757
rclavicle -4.67641e-014 1.35174e-014
rhumerus 39.7772 -35.3967 -43.9086
rradius 142.829
rwrist 20.9365
rhand -58.3713 -31.6378
rfingers 7.12502
rthumb -30.6 -59.1148
lclavicle -4.67641e-014 1.35174e-014
lhumerus -12.068 -6.09279 87.7948
lradius 59.7203
lwrist 31.4215
lhand -13.7766 -13.3639
lfingers 7.12502
lthumb 12.3445 16.2517
rfemur 19.9981 5.49478 23.7335
rtibia -11.6224
rfoot -6.13464 -5.00006
rtoes 8.48592
lfemur 29.7485 -2.98544 -11.1658
ltibia -20.1852
lfoot -8.19369 24.653
ltoes -5.38341
175
root -1.34488 17.8969 6.17233 -3.98672 -18.5789 -6.62624
lowerback 3.42313 -3.57612 3.89864
upperback -4.11324 -4.41654 2.47516
thorax -6.30429 -2.30239 0.799271
lowerneck -12.478 1.21472 5.07934
upperneck 33.4736 0.402109 -0.970804
head 13.3615 0.577929 -1.24101
rclavicle 6.50026e-014 -1.78906e-015
rhumerus 39.9968 -35.5297 -44.1564
rradius 141.998
rwrist 20.6994
rhand -58.216 -32.7022
rfingers 7.12502
rthumb -30.4519 -60.2067
lclavicle 6.50026e-014 -1.78906e-015
lhumerus -11.6605 -6.4267 87.9141
lradius 59.6799
lwrist 31.4221
lhand -13.7167 -13.6566
lfingers 7.12502
lthumb 12.4022 15.9555
rfemur 19.7405 5.43028 23.7347
rtibia -11.3605
rfoot -6.05959 -4.8145
rtoes 7.80453
lfemur 29.7233 -3.08952 -11.2086
ltibia -20.1795
lfoot -8.40393 24.9383
ltoes -4.86455
176
root -1.31816 17.9038 6.19116 -3.76693 -18.8268 -6.82932
lowerback 3.35641 -3.5315 3.70944
upperback -4.19412 -4.36474 2.59454
thorax -6.32575 -2.26672 1.02168
lowerneck -12.6657 1.07415 5.06565
upperneck 33.4359 0.18328 -0.966109
head 13.3775 0.479643 -1.26934
rclavicle -3.7123e-014 1.59028e-014
rhumerus 40.2638 -35.6595 -44.5342
rradius 141.251
rwrist 19.1254
rhand -57.8606 -31.9303
rfingers 7.12502
rthumb -30.1129 -59.4971
lclavicle -3.7123e-014 1.59028e-014
lhumerus -11.2618 -6.8073 87.9747
lradius 59.7253
lwrist 31.4841
lhand -13.6366 -13.8011
lfingers 7.12502
lthumb 12.4795 15.8063
rfemur 19.4606 5.53314 23.8153
rtibia -11.1113
rfoot -6.09194 -4.73998
rtoes 7.46537
lfemur 29.6607 -3.27439 -11.2254
ltibia -20.1531
lfoot -8.70107 25.3061
ltoes -4.27988
